<svg width="1500.933740234375px" height="359.61757812499997px" xmlns="http://www.w3.org/2000/svg" viewBox="-500.46687011718745 -104.80878906249998 1500.933740234375 359.61757812499997" style="background: rgba(0, 0, 0, 0);" preserveAspectRatio="xMidYMid"><defs><filter id="editing-golden" x="-100%" y="-100%" width="300%" height="300%"><feFlood flood-color="rgba(50.19607843137255%,39.6078431372549%,15.294117647058824%,0)" result="flood"></feFlood><feFlood flood-color="#fff694" result="flood-light"></feFlood><feComposite operator="in" in="flood" in2="SourceAlpha" result="flood-comp"></feComposite><feGaussianBlur in="flood-comp" stdDeviation="3" result="blur"></feGaussianBlur><feOffset in="blur" dy="3" result="offset-blur"></feOffset><feComponentTransfer in="offset-blur" result="comp-blur"><feFuncA type="linear" slope="0.7" intercept="-0.1"></feFuncA></feComponentTransfer><feSpecularLighting surfaceScale="200" specularConstant="20" specularExponent="1" lighting-color="#fff" in="blur" result="specular"><fePointLight x="-250" y="-250" z="3500"></fePointLight></feSpecularLighting><feComponentTransfer in="specular" result="inspecular"><feFuncA type="linear" slope="-1" intercept="1"></feFuncA></feComponentTransfer><feComposite operator="in" in="flood-light" in2="inspecular" result="inspecular2"></feComposite><feComposite operator="in" in="inspecular2" in2="SourceAlpha" result="light"></feComposite><feMerge><feMergeNode in="comp-blur"></feMergeNode><feMergeNode in="SourceGraphic"></feMergeNode><feMergeNode in="light"></feMergeNode></feMerge></filter></defs><g filter="url(#editing-golden)"><g transform="translate(-290.0296630859375, 162.4000015258789)"><path d="M37.40-5L37.40-5L37.40-5Q19.80 8.60 11.60 8.60L11.60 8.60L11.60 8.60Q7.20 8.60 5.10 4.30L5.10 4.30L5.10 4.30Q3 0 3-5L3-5L3-5Q3-14.60 11.10-33.80L11.10-33.80L11.10-33.80Q19.20-53 26.60-53L26.60-53L26.60-53Q30.40-53 33.10-38L33.10-38L33.10-38Q35.80-23 38.60-16.20L38.60-16.20L38.60-16.20Q52.20-30.60 78-64.20L78-64.20L78-64.20Q110.40-106.80 121-110.80L121-110.80L121-110.80Q124.60-112.20 128.40-112.20L128.40-112.20L128.40-112.20Q132.20-112.20 134.70-110.60L134.70-110.60L134.70-110.60Q137.20-109 137.20-106.60L137.20-106.60L137.20-106.60Q137.20-103.20 131.40-102.60L131.40-102.60L131.40-102.60Q124.40-98.80 109.80-84.20L109.80-84.20L109.80-84.20Q95.20-70 86.40-57.60L86.40-57.60L86.40-57.60Q65-27.80 42.40-9L42.40-9L42.40-9Q53.60 7.60 77.60 7.60L77.60 7.60L77.60 7.60Q80.20 7.60 85.40 7.20L85.40 7.20L85.40 7.20Q141 2 164.20-41L164.20-41L164.20-41Q173.60-58.20 173.60-75L173.60-75L173.60-75Q173.60-91.80 161.40-105.20L161.40-105.20L161.40-105.20Q151.60-116.20 140.10-118.80L140.10-118.80L140.10-118.80Q128.60-121.40 116.60-121.40L116.60-121.40L116.60-121.40Q85.80-121.40 59.80-107.20L59.80-107.20L59.80-107.20Q32.40-92.20 32.40-73.60L32.40-73.60L32.40-73.60Q32.40-68.60 35.10-65.40L35.10-65.40L35.10-65.40Q37.80-62.20 38.80-61.80L38.80-61.80L37.60-61.80L37.60-61.80Q32.40-62.80 28.40-67L28.40-67L28.40-67Q24-72.20 24-78L24-78L24-78Q24-98 49.10-112.40L49.10-112.40L49.10-112.40Q74.20-126.80 108-126.80L108-126.80L108-126.80Q123.60-126.80 140-123.20L140-123.20L140-123.20Q156.40-119.60 169.80-106L169.80-106L169.80-106Q185.20-90 185.20-69.80L185.20-69.80L185.20-69.80Q185.20-54.80 176.40-38.80L176.40-38.80L176.40-38.80Q161.20-11.20 131 1.60L131 1.60L131 1.60Q106.80 11.80 78.80 11.80L78.80 11.80L78.80 11.80Q50.80 11.80 37.40-5ZM10.20-5.80L10.20-5.80L10.20-5.80Q10.20 0.40 12.60 5L12.60 5L12.60 5Q21.20 1.20 33.40-10.80L33.40-10.80L33.40-10.80Q27.60-20.40 26.10-25.90L26.10-25.90L26.10-25.90Q24.60-31.40 24-40.40L24-40.40L24-40.40Q10.20-20.60 10.20-5.80ZM38.80-61.80L38.80-61.80L38.80-61.80Q39-61.80 39.20-62L39.20-62L39.20-62Q39.20-61.60 39.10-61.60L39.10-61.60L39.10-61.60Q39-61.60 38.80-61.80ZM236.40-42.40L236.40-42.40L236.40-42.40Q236.40-35.40 223.00-19L223.00-19L223.00-19Q207.20 0.40 196.00 0.40L196.00 0.40L192.80 0.40L192.80 0.40Q187.60 0.40 184.60-5L184.60-5L184.60-5Q182.20-8.80 182.20-13.40L182.20-13.40L182.20-13.40Q182.20-25.40 199.70-47.10L199.70-47.10L199.70-47.10Q217.20-68.80 228.00-68.80L228.00-68.80L228.00-68.80Q238.20-68.80 238.20-58L238.20-58L238.20-58Q238.20-55.20 237.20-50.80L237.20-50.80L237.20-50.80Q237.40-50.20 241.00-50.20L241.00-50.20L241.00-50.20Q244.60-50.20 252-54L252-54L252-54Q251.80-50.60 236.20-44.20L236.20-44.20L236.20-44.20Q236.40-43.40 236.40-42.40ZM223.40-52.80L223.40-52.80L223.40-52.80Q216.60-52.80 204.10-36.80L204.10-36.80L204.10-36.80Q191.60-20.80 191.60-13.20L191.60-13.20L191.60-13.20Q191.60-5.60 196.40-5.60L196.40-5.60L196.40-5.60Q205.00-5.60 218.20-21.20L218.20-21.20L218.20-21.20Q231.40-36.80 231.40-43.60L231.40-43.60L231.40-43.60Q228.20-45.40 223.40-52.80ZM296.40 1.20L296.40 1.20L296.40 1.20Q295.40 1.40 292.10 1.40L292.10 1.40L292.10 1.40Q288.80 1.40 285.50-1.20L285.50-1.20L285.50-1.20Q282.20-3.80 282.20-7.90L282.20-7.90L282.20-7.90Q282.20-12 283.70-17L283.70-17L283.70-17Q285.20-22 285.80-24.60L285.80-24.60L285.80-24.60Q262.80 2.20 249.80 2.20L249.80 2.20L249.80 2.20Q241.60 2.20 240.80-8L240.80-8L240.80-8Q240.80-8.80 240.80-9.40L240.80-9.40L240.80-9.40Q240.80-18 251.20-32.60L251.20-32.60L251.20-32.60Q245.40-27.40 239.40-20.60L239.40-20.60L239.40-20.60Q238.60-19.80 237.40-19.80L237.40-19.80L237.40-19.80Q236.60-19.80 236.60-20.80L236.60-20.80L236.60-20.80Q236.60-21.80 238.40-24.20L238.40-24.20L266.00-56.60L266.00-56.60Q271.20-62.60 276.60-62.60L276.60-62.60L276.60-62.60Q282.00-62.60 282.00-59L282.00-59L282.00-59Q282.00-57.60 280.80-56.40L280.80-56.40L280.80-56.40Q272.80-49 260.70-31.80L260.70-31.80L260.70-31.80Q248.60-14.60 248.60-6.40L248.60-6.40L248.60-6.40Q248.60-2.80 251.00-2.80L251.00-2.80L251.00-2.80Q259.40-2.80 275.40-19.40L275.40-19.40L275.40-19.40Q281.00-25 296.20-44.10L296.20-44.10L296.20-44.10Q311.40-63.20 316.20-63.20L316.20-63.20L316.20-63.20Q323.40-63.20 323.40-57.60L323.40-57.60L323.40-57.60Q323.40-55.60 315.00-46L315.00-46L315.00-46Q303.60-32.20 297.60-23.50L297.60-23.50L297.60-23.50Q291.60-14.80 291.60-9.40L291.60-9.40L291.60-9.40Q291.60-4 294.60-4L294.60-4L294.60-4Q296.00-4 297.80-4.80L297.80-4.80L297.80-4.80Q311.60-10.80 330.80-32.80L330.80-32.80L330.80-32.80Q332.00-34.20 333.20-34.20L333.20-34.20L333.20-34.20Q334.40-34.20 334.40-32.90L334.40-32.90L334.40-32.90Q334.40-31.60 333.00-30L333.00-30L333.00-30Q324.40-20 312.80-9.90L312.80-9.90L312.80-9.90Q301.20 0.20 296.40 1.20ZM392.20-61L392.20-61L395.00-61.60L395.00-61.60Q397.60-61.60 399.10-60L399.10-60L399.10-60Q400.60-58.40 400.60-57.50L400.60-57.50L400.60-57.50Q400.60-56.60 400.40-55.50L400.40-55.50L400.40-55.50Q400.20-54.40 394.60-45.40L394.60-45.40L394.60-45.40Q387.60-33.20 383.00-24.80L383.00-24.80L383.00-24.80Q366.80 5.40 358.20 16.60L358.20 16.60L358.20 16.60Q339.80 41 323.20 41L323.20 41L323.20 41Q317.40 41 313.10 36.10L313.10 36.10L313.10 36.10Q308.80 31.20 308.60 25.20L308.60 25.20L308.60 25.20Q309.20 22.80 310.40 22.80L310.40 22.80L310.40 22.80Q311.00 22.80 311.40 24.20L311.40 24.20L311.40 24.20Q312.40 29.40 315.20 32.20L315.20 32.20L315.20 32.20Q318.00 35 320.80 35L320.80 35L320.80 35Q332.20 35 345.20 20L345.20 20L345.20 20Q353.80 10 364.20-9.20L364.20-9.20L374.20-29L359.20-13.80L359.20-13.80Q344.80 0 339.50 0L339.50 0L339.50 0Q334.20 0 329.40-3.60L329.40-3.60L329.40-3.60Q324.00-7.60 324.00-14.20L324.00-14.20L324.00-14.20Q324.00-28.80 344.50-49L344.50-49L344.50-49Q365.00-69.20 381.80-69.20L381.80-69.20L381.80-69.20Q388.60-69.20 390.60-64.80L390.60-64.80L390.60-64.80Q391.20-63.20 391.60-62.10L391.60-62.10L391.60-62.10Q392.00-61 392.20-61ZM332.40-11.80L332.40-11.80L332.40-11.80Q332.40-4.60 337.40-4.60L337.40-4.60L337.40-4.60Q349.00-4.60 369.00-30L369.00-30L390.20-59.20L390.20-59.20Q389.00-62 385.20-62L385.20-62L385.20-62Q372.80-62 352.60-42.90L352.60-42.90L352.60-42.90Q332.40-23.80 332.40-11.80ZM407.20-10L407.20-10L407.20-10Q407.20-4 413.80-4L413.80-4L413.80-4Q420.40-4 430.80-11L430.80-11L430.80-11Q441.20-18 451.00-30L451.00-30L451.00-30Q453.40-33.20 454.80-33.20L454.80-33.20L454.80-33.20Q456.20-33.20 456.20-32L456.20-32L456.20-32Q456.20-30.80 448.00-21.60L448.00-21.60L448.00-21.60Q428.00 0.40 414.60 0.40L414.60 0.40L414.60 0.40Q408.00 0.40 403.40-2.70L403.40-2.70L403.40-2.70Q398.80-5.80 398.80-12.30L398.80-12.30L398.80-12.30Q398.80-18.80 402.20-27.40L402.20-27.40L402.20-27.40Q408.00-41 420.80-61.60L420.80-61.60L420.80-61.60Q444.20-99.60 454.00-99.60L454.00-99.60L454.00-99.60Q456.00-99.60 458.10-98.10L458.10-98.10L458.10-98.10Q460.20-96.60 460.40-94.80L460.40-94.80L460.40-94.80Q455.80-88.60 442.70-71L442.70-71L442.70-71Q429.60-53.40 424.60-45.70L424.60-45.70L424.60-45.70Q419.60-38 417.10-34.20L417.10-34.20L417.10-34.20Q414.60-30.40 413.40-28.30L413.40-28.30L413.40-28.30Q412.20-26.20 410.60-22.80L410.60-22.80L410.60-22.80Q407.20-16 407.20-10ZM514.40-59.80L514.40-59.80L517.20-60.40L517.20-60.40Q519.40-60.40 521.40-58.60L521.40-58.60L521.40-58.60Q523.40-56.80 523.40-55.80L523.40-55.80L523.40-55.80Q523.40-54.80 511.00-36.50L511.00-36.50L511.00-36.50Q498.60-18.20 498.60-11L498.60-11L498.60-11Q498.60-10.40 498.80-9.80L498.80-9.80L498.80-9.80Q499.80-5.20 503.20-5.20L503.20-5.20L503.20-5.20Q513.60-5.20 541.20-39.60L541.20-39.60L541.20-39.60Q541.80-40.40 542.60-40.40L542.60-40.40L542.60-40.40Q543.40-40.40 543.40-38.90L543.40-38.90L543.40-38.90Q543.40-37.40 541.60-35L541.60-35L541.60-35Q516-0.80 502.60-0.80L502.60-0.80L502.60-0.80Q500.80-0.80 499.20-1.40L499.20-1.40L499.20-1.40Q490.40-4.80 490.40-14.60L490.40-14.60L490.40-14.60Q490.40-18 491.20-21.40L491.20-21.40L478.80-9.40L478.80-9.40Q467.00 1 461.70 1L461.70 1L461.70 1Q456.40 1 451.60-2.40L451.60-2.40L451.60-2.40Q446.20-6.40 446.20-13L446.20-13L446.20-13Q446.20-27.60 466.60-47.90L466.60-47.90L466.60-47.90Q487.00-68.20 504.00-68.20L504.00-68.20L504.00-68.20Q510.60-68.20 512.80-63.60L512.80-63.60L512.80-63.60Q513.40-62 513.80-60.90L513.80-60.90L513.80-60.90Q514.20-59.80 514.40-59.80ZM454.60-10.60L454.60-10.60L454.60-10.60Q454.60-3.40 459.60-3.40L459.60-3.40L459.60-3.40Q471.20-3.40 491.20-28.80L491.20-28.80L512.40-58L512.40-58Q510.80-60.80 507.20-60.80L507.20-60.80L507.20-60.80Q495.00-60.80 474.80-41.90L474.80-41.90L474.80-41.90Q454.60-23 454.60-10.60ZM573.60-7.20L567.20-3L567.20-3Q561.40 0.40 552.90 0.40L552.90 0.40L552.90 0.40Q544.40 0.40 539.90-5.20L539.90-5.20L539.90-5.20Q535.40-10.80 532.20-23L532.20-23L532.20-23Q528.60-19.40 527.20-19.40L527.20-19.40L527.20-19.40Q526.20-19.40 526.20-20.80L526.20-20.80L526.20-20.80Q526.20-22.20 527.20-23.20L527.20-23.20L527.20-23.20Q533.80-31.40 549.60-46.80L549.60-46.80L574.80-70.40L574.80-70.40Q585.60-80.60 587.60-80.60L587.60-80.60L587.60-80.60Q594.00-80.60 594.00-75.80L594.00-75.80L594.00-75.80Q594.00-73.40 592.10-71.10L592.10-71.10L592.10-71.10Q590.20-68.80 589.30-67.50L589.30-67.50L589.30-67.50Q588.40-66.20 587.40-65L587.40-65L587.40-65Q583.80-58.80 580.10-39.40L580.10-39.40L580.10-39.40Q576.40-20 574.40-12.40L574.40-12.40L574.40-12.40Q591.00-12.60 608.60-34L608.60-34L608.60-34Q610.60-36 611.60-36L611.60-36L611.60-36Q612.60-36 612.60-34.70L612.60-34.70L612.60-34.70Q612.60-33.40 610.80-31.20L610.80-31.20L610.80-31.20Q599.20-17.60 589.20-12.20L589.20-12.20L589.20-12.20Q583.20-9.20 573.60-7.20L573.60-7.20ZM540.20-25.20L540.20-25.20L540.20-25.20Q540.20-18.40 544.70-14.10L544.70-14.10L544.70-14.10Q549.20-9.80 554.80-9.80L554.80-9.80L554.80-9.80Q560.40-9.80 563.40-12L563.40-12L563.40-12Q567.40-14.20 571.30-30.40L571.30-30.40L571.30-30.40Q575.20-46.60 576.00-59L576.00-59L576.80-65.80L576.80-65.80Q565.80-57.60 553.30-44.60L553.30-44.60L553.30-44.60Q540.80-31.60 540.40-27.40L540.40-27.40L540.40-27.40Q540.20-26.20 540.20-25.20ZM831.00-57.20L831.00-57.20L850.40-57.60L850.40-57.60Q857.60-57.60 857.60-56.60L857.60-56.60L857.60-56.60Q857.60-54 828.40-52L828.40-52L828.40-52Q809.80-15.60 809.80-2.40L809.80-2.40L809.80-2.40Q809.80 6.80 815.60 6.80L815.60 6.80L815.60 6.80Q817.80 6.80 821.10 4.10L821.10 4.10L821.10 4.10Q824.40 1.40 825.10 1.40L825.10 1.40L825.10 1.40Q825.80 1.40 825.80 2.40L825.80 2.40L825.80 2.40Q824.80 6 819.70 8.40L819.70 8.40L819.70 8.40Q814.60 10.80 811.10 10.80L811.10 10.80L811.10 10.80Q807.60 10.80 805.60 10.40L805.60 10.40L805.60 10.40Q800.80 8.60 800.80-1.20L800.80-1.20L800.80-1.20Q800.80-21.40 816.20-52.60L816.20-52.60L792.20-52L792.20-52Q765.40-25.80 738.40-6L738.40-6L738.40-6Q698.00 23.40 675.20 23.40L675.20 23.40L675.20 23.40Q673.80 23.40 672.40 23.20L672.40 23.20L672.40 23.20Q641.60 20.60 641.60-8.40L641.60-8.40L641.60-8.40Q641.60-25.60 652.40-44.80L652.40-44.80L652.40-44.80Q666.80-70.40 691.80-88.50L691.80-88.50L691.80-88.50Q716.80-106.60 736.60-106.60L736.60-106.60L736.60-106.60Q756.40-106.60 756.40-92L756.40-92L756.40-92Q756.40-82.20 750.40-70.20L750.40-70.20L750.40-70.20Q744.40-58.20 738.20-55L738.20-55L738.20-55Q737.60-54.80 736.90-54.80L736.90-54.80L736.90-54.80Q736.20-54.80 736.20-55.20L736.20-55.20L742.80-66L742.80-66Q749.60-76.60 749.60-84.60L749.60-84.60L749.60-84.60Q749.60-92.60 746.10-97.50L746.10-97.50L746.10-97.50Q742.60-102.40 735.00-102.40L735.00-102.40L735.00-102.40Q719.40-102.40 697.70-85L697.70-85L697.70-85Q676.00-67.60 664.70-42.20L664.70-42.20L664.70-42.20Q653.40-16.80 653.40-2.60L653.40-2.60L653.40-2.60Q653.40 18.80 675.20 18.80L675.20 18.80L675.20 18.80Q696.00 18.80 731.60-8L731.60-8L731.60-8Q747.40-19.80 783.00-52.60L783.00-52.60L783.00-52.60Q776.00-52.20 770.00-51.20L770.00-51.20L770.00-51.20Q757.20-48.80 758.00-52L758.00-52L758.00-52Q758.80-59.40 765.60-59.40L765.60-59.40L765.60-59.40Q778.80-57.80 787.80-57.80L787.80-57.80L787.80-57.80Q805.00-73.60 839.20-109.60L839.20-109.60L839.20-109.60Q862.20-133.80 867.20-133.80L867.20-133.80L867.20-133.80Q869.40-133.80 869.40-130.40L869.40-130.40L869.40-130.40Q869.40-127 867.60-119.80L867.60-119.80L867.60-119.80Q865.80-112.60 863.60-111L863.60-111L863.60-111Q859.00-107.80 855.00-102.30L855.00-102.30L855.00-102.30Q851.00-96.80 843.60-81.70L843.60-81.70L843.60-81.70Q836.20-66.60 831.00-57.20ZM847.00-106L847.00-106L795.80-58L807.60-58L807.60-58Q811.80-57.80 818.00-57.80L818.00-57.80L818.00-57.80Q823.80-69.20 847.00-106ZM853.60-10L853.60-10L853.60-10Q853.60-4 860.20-4L860.20-4L860.20-4Q866.80-4 877.20-11L877.20-11L877.20-11Q887.60-18 897.40-30L897.40-30L897.40-30Q899.80-33.20 901.20-33.20L901.20-33.20L901.20-33.20Q902.60-33.20 902.60-32L902.60-32L902.60-32Q902.60-30.80 894.40-21.60L894.40-21.60L894.40-21.60Q874.40 0.40 861.00 0.40L861.00 0.40L861.00 0.40Q854.40 0.40 849.80-2.70L849.80-2.70L849.80-2.70Q845.20-5.80 845.20-12.30L845.20-12.30L845.20-12.30Q845.20-18.80 848.60-27.40L848.60-27.40L848.60-27.40Q854.40-41 867.20-61.60L867.20-61.60L867.20-61.60Q890.60-99.60 900.40-99.60L900.40-99.60L900.40-99.60Q902.40-99.60 904.50-98.10L904.50-98.10L904.50-98.10Q906.60-96.60 906.80-94.80L906.80-94.80L906.80-94.80Q902.20-88.60 889.10-71L889.10-71L889.10-71Q876.00-53.40 871.00-45.70L871.00-45.70L871.00-45.70Q866.00-38 863.50-34.20L863.50-34.20L863.50-34.20Q861.00-30.40 859.80-28.30L859.80-28.30L859.80-28.30Q858.60-26.20 857.00-22.80L857.00-22.80L857.00-22.80Q853.60-16 853.60-10ZM948.60-78.60L948.60-78.60L948.60-78.60Q954.60-78.60 958.80-74.60L958.80-74.60L958.80-74.60Q963.00-70.60 963.00-63.40L963.00-63.40L963.00-63.40Q963.00-47.60 936.80-23.80L936.80-23.80L936.80-23.80Q914.60-3.80 901.00 0.60L901.00 0.60L901.00 0.60Q898.80 0.60 895.20-1.80L895.20-1.80L895.20-1.80Q891.60-4.20 891.60-6.20L891.60-6.20L891.60-6.20Q891.60-10.60 901.20-36L901.20-36L901.20-36Q910.80-61.40 914.40-64.40L914.40-64.40L914.40-64.40Q915.20-65.20 917.00-65.20L917.00-65.20L917.00-65.20Q918.80-65.20 920.80-63.30L920.80-63.30L920.80-63.30Q922.80-61.40 923.00-58.80L923.00-58.80L923.00-58.80Q923.00-58.60 913.10-35.60L913.10-35.60L913.10-35.60Q903.20-12.60 903.80-8.20L903.80-8.20L903.80-8.20Q912.40-10.80 934.50-29.20L934.50-29.20L934.50-29.20Q956.60-47.60 956.60-62.20L956.60-62.20L956.60-62.20Q956.60-71 947.80-75L947.80-75L947.80-75Q946.40-75.60 946.40-76.80L946.40-76.80L946.40-76.80Q946.40-78.60 948.60-78.60ZM964.80 2.60L964.80 2.60L964.80 2.60Q962.60 2.60 960.80 2L960.80 2L960.80 2Q948.00-1.60 948.00-12.40L948.00-12.40L948.00-12.40Q948.00-26.40 965.60-44.80L965.60-44.80L965.60-44.80Q983.20-63.20 997.20-63.20L997.20-63.20L997.20-63.20Q1001.80-63.20 1004.70-60.70L1004.70-60.70L1004.70-60.70Q1007.60-58.20 1007.60-54.60L1007.60-54.60L1007.60-54.60Q1007.60-43.40 990.70-33.20L990.70-33.20L990.70-33.20Q973.80-23 963.20-23L963.20-23L963.20-23Q961.60-23 960.40-23.40L960.40-23.40L960.40-23.40Q957.40-18 957.40-12L957.40-12L957.40-12Q957.40-1.60 967.30-1.60L967.30-1.60L967.30-1.60Q977.20-1.60 993.00-15L993.00-15L993.00-15Q1005.20-24.80 1013.80-35.80L1013.80-35.80L1013.80-35.80Q1015.60-38.20 1016.90-38.20L1016.90-38.20L1016.90-38.20Q1018.20-38.20 1018.20-37L1018.20-37L1018.20-37Q1018.20-35.80 1016.60-33.60L1016.60-33.60L1016.60-33.60Q1005.80-19.40 990.60-8.40L990.60-8.40L990.60-8.40Q975.40 2.60 964.80 2.60ZM1002.60-55L1002.60-55L1002.60-55Q1002.60-57.40 997.50-57.40L997.50-57.40L997.50-57.40Q992.40-57.40 983.00-49.60L983.00-49.60L983.00-49.60Q970.40-39.20 963.40-27.80L963.40-27.80L963.40-27.80Q964.60-27.40 966.00-27.40L966.00-27.40L966.00-27.40Q973.60-27.40 986.30-35.50L986.30-35.50L986.30-35.50Q999.00-43.60 1002.20-53.20L1002.20-53.20L1002.20-53.20Q1002.60-54.20 1002.60-55ZM1049.20-7.20L1042.80-3L1042.80-3Q1037 0.40 1028.50 0.40L1028.50 0.40L1028.50 0.40Q1020.00 0.40 1015.50-5.20L1015.50-5.20L1015.50-5.20Q1011.00-10.80 1007.80-23L1007.80-23L1007.80-23Q1004.20-19.40 1002.80-19.40L1002.80-19.40L1002.80-19.40Q1001.80-19.40 1001.80-20.80L1001.80-20.80L1001.80-20.80Q1001.80-22.20 1002.80-23.20L1002.80-23.20L1002.80-23.20Q1009.40-31.40 1025.20-46.80L1025.20-46.80L1050.40-70.40L1050.40-70.40Q1061.20-80.60 1063.20-80.60L1063.20-80.60L1063.20-80.60Q1069.60-80.60 1069.60-75.80L1069.60-75.80L1069.60-75.80Q1069.60-73.40 1067.70-71.10L1067.70-71.10L1067.70-71.10Q1065.80-68.80 1064.90-67.50L1064.90-67.50L1064.90-67.50Q1064-66.20 1063-65L1063-65L1063-65Q1059.40-58.80 1055.70-39.40L1055.70-39.40L1055.70-39.40Q1052-20 1050-12.40L1050-12.40L1050-12.40Q1066.60-12.60 1084.20-34L1084.20-34L1084.20-34Q1086.20-36 1087.20-36L1087.20-36L1087.20-36Q1088.20-36 1088.20-34.70L1088.20-34.70L1088.20-34.70Q1088.20-33.40 1086.40-31.20L1086.40-31.20L1086.40-31.20Q1074.80-17.60 1064.80-12.20L1064.80-12.20L1064.80-12.20Q1058.80-9.20 1049.20-7.20L1049.20-7.20ZM1015.80-25.20L1015.80-25.20L1015.80-25.20Q1015.80-18.40 1020.30-14.10L1020.30-14.10L1020.30-14.10Q1024.80-9.80 1030.40-9.80L1030.40-9.80L1030.40-9.80Q1036-9.80 1039-12L1039-12L1039-12Q1043-14.20 1046.90-30.40L1046.90-30.40L1046.90-30.40Q1050.80-46.60 1051.60-59L1051.60-59L1052.40-65.80L1052.40-65.80Q1041.40-57.60 1028.90-44.60L1028.90-44.60L1028.90-44.60Q1016.40-31.60 1016.00-27.40L1016.00-27.40L1016.00-27.40Q1015.80-26.20 1015.80-25.20Z" fill="#f7c61d"></path></g></g><style>text {
  font-size: 64px;
  font-family: Arial Black;
  dominant-baseline: central;
  text-anchor: middle;
}</style></svg>